<svg width="287" height="68" viewBox="0 0 287 68" fill="none" xmlns="http://www.w3.org/2000/svg">
<path d="M10.9 49V45.022L30.361 25.093L33.052 27.199H11.914V21.7H37.693V25.639L18.232 45.607L15.58 43.696H38.122V49H10.9ZM53.0742 57.97L59.2362 47.401L58.9632 50.443L46.2492 28.369H52.7622L58.7292 39.64C59.4052 40.862 60.0032 42.032 60.5232 43.15C61.0692 44.242 61.4852 45.295 61.7712 46.309H60.4842C60.8482 45.399 61.2902 44.372 61.8102 43.228C62.3562 42.058 62.9412 40.862 63.5652 39.64L69.3762 28.369H75.7722L63.8382 49.234L58.8852 57.97H53.0742ZM88.0085 49V20.14H93.5465V49H88.0085ZM120.45 49.39C117.694 49.39 115.25 48.935 113.118 48.025C111.012 47.115 109.361 45.854 108.165 44.242C106.969 42.604 106.371 40.745 106.371 38.665C106.371 36.559 106.969 34.713 108.165 33.127C109.361 31.515 111.012 30.254 113.118 29.344C115.25 28.408 117.694 27.94 120.45 27.94C123.206 27.94 125.637 28.408 127.743 29.344C129.849 30.254 131.487 31.515 132.657 33.127C133.853 34.713 134.451 36.559 134.451 38.665C134.451 40.745 133.853 42.604 132.657 44.242C131.487 45.854 129.849 47.115 127.743 48.025C125.637 48.935 123.206 49.39 120.45 49.39ZM120.45 44.554C122.01 44.554 123.427 44.307 124.701 43.813C126.001 43.319 127.028 42.63 127.782 41.746C128.536 40.836 128.887 39.809 128.835 38.665C128.887 37.495 128.536 36.468 127.782 35.584C127.028 34.7 126.001 34.011 124.701 33.517C123.427 32.997 122.01 32.737 120.45 32.737C118.89 32.737 117.46 32.997 116.16 33.517C114.86 34.011 113.833 34.7 113.079 35.584C112.325 36.442 111.961 37.469 111.987 38.665C111.961 39.809 112.325 40.836 113.079 41.746C113.833 42.63 114.86 43.319 116.16 43.813C117.46 44.307 118.89 44.554 120.45 44.554ZM146.364 49V21.7H152.214V49H146.364ZM148.587 38.548V33.517H167.853V38.548H148.587ZM149.133 26.965V21.7H169.491V26.965H149.133ZM183.033 49V20.14H188.571V49H183.033ZM215.474 49.39C212.718 49.39 210.274 48.935 208.142 48.025C206.036 47.115 204.385 45.854 203.189 44.242C201.993 42.604 201.395 40.745 201.395 38.665C201.395 36.559 201.993 34.713 203.189 33.127C204.385 31.515 206.036 30.254 208.142 29.344C210.274 28.408 212.718 27.94 215.474 27.94C218.23 27.94 220.661 28.408 222.767 29.344C224.873 30.254 226.511 31.515 227.681 33.127C228.877 34.713 229.475 36.559 229.475 38.665C229.475 40.745 228.877 42.604 227.681 44.242C226.511 45.854 224.873 47.115 222.767 48.025C220.661 48.935 218.23 49.39 215.474 49.39ZM215.474 44.554C217.034 44.554 218.451 44.307 219.725 43.813C221.025 43.319 222.052 42.63 222.806 41.746C223.56 40.836 223.911 39.809 223.859 38.665C223.911 37.495 223.56 36.468 222.806 35.584C222.052 34.7 221.025 34.011 219.725 33.517C218.451 32.997 217.034 32.737 215.474 32.737C213.914 32.737 212.484 32.997 211.184 33.517C209.884 34.011 208.857 34.7 208.103 35.584C207.349 36.442 206.985 37.469 207.011 38.665C206.985 39.809 207.349 40.836 208.103 41.746C208.857 42.63 209.884 43.319 211.184 43.813C212.484 44.307 213.914 44.554 215.474 44.554ZM244.995 49L237.312 28.369H243.24L247.92 43.033L247.062 42.955L252.678 31.177H256.812L262.701 42.994L261.999 43.033L267.069 28.369H272.88L264.729 49H260.556L253.536 34.141L256.383 33.829L249.129 49H244.995Z" fill="white"/>
</svg>
